<svg viewBox="0 0 2000 452" fill="none" xmlns="http://www.w3.org/2000/svg">
<g clip-path="url(#clip0_4_2)">
<path d="M1629.6 121.5H1654.4V234H1634.7L1602.1 178.7H1601.8V234H1577V121.5H1597.7L1629.3 174.7H1629.6V121.5ZM1726.9 189.1H1752.9V164.7H1726.9V149.6H1763.7V121.4H1698.6V233.9H1764.7V206.4H1726.9V189.1ZM1863.8 186.7L1884.1 233.9H1853.7L1839.1 194.2H1832.8V233.9H1804.5V121.4H1841.7C1868.4 121.4 1878.5 136.7 1878.5 156.4C1878.5 176.1 1873.5 181 1863.7 186.6L1863.8 186.7ZM1850.7 158.7C1850.7 150.6 1848.6 147.5 1841.6 147.5H1832.9V170.2H1842C1849.6 170.2 1850.7 165.2 1850.7 158.7ZM2000 165.8V189.2C2000 215.5 1985.3 234 1960.1 234H1920.1V121.5H1960.1C1985.3 121.5 2000 139.9 2000 165.8ZM1971.7 167.7C1971.7 153.4 1968.3 149 1960.1 149H1948.3V207.6H1960.1C1968.4 207.6 1971.7 203.3 1971.7 188.2V167.8V167.7ZM1604 301.7H1577V414.2H1638.2V385.5H1604.1V301.7H1604ZM1731 301.7L1761.5 414.2H1733L1728.8 395.3H1701.4L1697.3 414.2H1668.9L1699.4 301.7H1731ZM1723.4 371.4L1714.9 332.8H1714.6L1706.5 371.4H1723.4ZM1873.7 381.6C1873.7 401.5 1864.3 414.2 1838.9 414.2H1797.6V301.7H1834.1C1859.7 301.7 1869.2 316 1869.2 331.6C1869.2 347.2 1866.3 350.8 1857.3 355.8V356.1C1868.9 360.1 1873.7 369.7 1873.7 381.5V381.6ZM1825.2 346.2H1835C1842 346.2 1844 343.5 1844 337.1C1844 330.7 1841.9 328.7 1835 328.7H1825.2V346.2ZM1845.9 378.6C1845.9 371.4 1843.8 369.3 1836.8 369.3H1825.2V388H1837C1843.7 388 1846 385.4 1846 378.6H1845.9ZM1945.6 325.6C1952.3 325.6 1958.3 328.9 1961.6 335.9L1979.8 323.9C1972.5 309.3 1961.6 300.2 1942.7 300.2C1923.8 300.2 1909.4 315.1 1909.4 333.7C1909.4 370.6 1953.8 369.8 1953.8 384.7C1953.8 399.6 1951.4 390.7 1944.1 390.7C1936.8 390.7 1930.5 386.6 1927.3 378.7L1907.1 387.8C1911.7 404.6 1927.4 415.8 1944.3 415.8C1961.2 415.8 1979.7 403.1 1979.7 381.1C1979.7 342.6 1937 344.7 1937 332.3C1937 319.9 1939.2 325.6 1945.5 325.6H1945.6Z" fill="url(#paint0_linear_4_2)"/>
<path d="M399.6 289.1C336.2 275.1 279.3 277.1 217.3 295.4H188.3C126.3 277 69.4 275 5.99999 289.1C1.49999 302.4 4.29999 312.7 4.29999 312.7C4.29999 312.7 16.6 315.4 20.4 321.4C26.3 330.9 26.8 365.5 33.7 379.6C51.8 416.7 107.4 413.3 140.5 406.4C177.6 398.6 179.2 359.9 187.3 327.2L187.5 325.9C195.2 321 210.9 321.1 218.3 326.2V327.2C226.5 359.9 228.2 398.6 265.2 406.4C298.3 413.3 354 416.7 372 379.6C378.9 365.5 379.4 330.8 385.3 321.4C389 315.4 401.4 312.7 401.4 312.7C401.4 312.7 404.2 302.4 399.7 289.1H399.6ZM147.9 384.9C130.4 396 92.5 395.8 66.3 387.5C45.2 380.9 39.6 324.3 51.2 311.9C80.3 298.8 135.5 306.9 163.6 315.8C166.3 345.3 163.2 375.1 147.8 384.8L147.9 384.9ZM339.3 387.6C313.1 395.8 275.3 396.1 257.7 385C242.3 375.2 239.2 345.4 241.9 316C270 307 325.2 299 354.3 312.1C366 324.5 360.3 381.1 339.3 387.7V387.6Z" fill="url(#paint1_linear_4_2)"/>
<path d="M1360.9 452.3C1360.3 452.3 1359.7 452.3 1359.1 452.3H1281.7C1281.1 452.3 1280.5 452.3 1279.9 452.3C1268.4 451.1 1261.4 438.6 1266.9 428L1267.7 426.5L1286.9 389.4L1304 356.5V327.2C1301.7 326.7 1299.9 324.7 1299.9 322.2V319.4C1299.9 316.5 1302.2 314.1 1305.1 314.1H1335.6C1338.5 314.1 1340.9 316.5 1340.9 319.4V322.2C1340.9 324.6 1339.1 326.6 1336.8 327.2V356.5L1373.2 426.5L1374 428C1379.5 438.6 1372.5 451 1361 452.3H1360.9Z" fill="white"/>
<path d="M1313.2 300.2C1318.2 300.2 1322.3 296.1 1322.3 291.1C1322.3 286.1 1318.2 282 1313.2 282C1308.2 282 1304.1 286.1 1304.1 291.1C1304.1 296.1 1308.2 300.2 1313.2 300.2Z" fill="white"/>
<path d="M1337.3 283.5C1345.36 283.5 1351.9 276.963 1351.9 268.9C1351.9 260.837 1345.36 254.3 1337.3 254.3C1329.24 254.3 1322.7 260.837 1322.7 268.9C1322.7 276.963 1329.24 283.5 1337.3 283.5Z" fill="white"/>
<path d="M936.4 426.5V248.6C924.6 300.2 884.5 335.6 823 335.6H767.5V426.5H569.6L555.1 377.3H447.4L433.4 426.5H333.3L323.8 452.2H452.8L458.1 433.5L466.9 402.9H535.9L545 433.7L550.4 452.2H793.3V361.3H823C857 361.3 887 351.6 910.7 334.2V452.2H1241.4L1254.8 426.5H936.5H936.4ZM1507.6 413.5L1417.1 260.3L1505.3 106.7L1527.4 68.1H1354.5L1347.4 82.3L1321.1 134.8L1293.5 81.9L1286.3 68.1H910.8V98.1C885.1 78.8 851.7 68.1 813.6 68.1H640V252.9L582.1 85.4L576.1 68.1H426.7L420.8 85.5L382.2 197.6L383.7 268.5L384.7 269.5L445.1 93.9H557.7L665.7 406.2V93.9H813.5C880.4 93.9 924 130.7 936.4 183.2V93.9H1270.5L1321.4 191.4L1370.3 93.9H1482.9L1387.3 260.5L1485.5 426.6H1386.2L1399.6 452.3H1530.6L1507.6 413.5ZM1253.5 256.4L1176.5 126.7V187.8H1038.3V219.3H1134.7V300.6H1038.3V334.1H1180.3V384L1253.5 256.4ZM1160.5 308.4V213.6H1198.2L1223.8 256.7L1194.1 308.4H1160.6H1160.5ZM808.9 182.2H767.5V252.3H808.9C830 252.3 837.9 237.6 837.9 217.3C837.9 197 830 182.2 808.9 182.2ZM811 226.4C810.5 226.4 809.8 226.5 808.9 226.5H793.3V207.9H808.9C809.9 207.9 810.6 207.9 811 208C811.4 209.4 812.1 212.3 812.1 217.2C812.1 222.1 811.4 225.1 810.9 226.3L811 226.4ZM500.5 191.9H499.7L470.3 296.6H531.2L500.6 191.9H500.5ZM500.5 191.9H499.7L470.3 296.6H531.2L500.6 191.9H500.5ZM808.9 182.2H767.5V252.3H808.9C830 252.3 837.9 237.6 837.9 217.3C837.9 197 830 182.2 808.9 182.2ZM811 226.4C810.5 226.4 809.8 226.5 808.9 226.5H793.3V207.9H808.9C809.9 207.9 810.6 207.9 811 208C811.4 209.4 812.1 212.3 812.1 217.2C812.1 222.1 811.4 225.1 810.9 226.3L811 226.4ZM1253.5 256.4L1176.5 126.7V187.8H1038.3V219.3H1134.7V300.6H1038.3V334.1H1180.3V384L1253.5 256.4ZM1160.5 308.4V213.6H1198.2L1223.8 256.7L1194.1 308.4H1160.6H1160.5ZM1253.5 256.4L1176.5 126.7V187.8H1038.3V219.3H1134.7V300.6H1038.3V334.1H1180.3V384L1253.5 256.4ZM1160.5 308.4V213.6H1198.2L1223.8 256.7L1194.1 308.4H1160.6H1160.5ZM808.9 182.2H767.5V252.3H808.9C830 252.3 837.9 237.6 837.9 217.3C837.9 197 830 182.2 808.9 182.2ZM811 226.4C810.5 226.4 809.8 226.5 808.9 226.5H793.3V207.9H808.9C809.9 207.9 810.6 207.9 811 208C811.4 209.4 812.1 212.3 812.1 217.2C812.1 222.1 811.4 225.1 810.9 226.3L811 226.4ZM500.5 191.9H499.7L470.3 296.6H531.2L500.6 191.9H500.5Z" fill="white"/>
<path d="M375.5 114.3C368.8 102 360.5 86.8 360.5 86.8C294.9 -2 185.9 40.2 96.6 0C103.5 22.6 113.9 42.1 128.7 57.9C86.5999 65.7 42.0999 81.3 0.0999451 64.4C-0.800055 85.8 9.19995 102.8 22.9999 117.7C9.49995 125.9 6.19995 139.4 6.19995 139.4L19.3999 251.1L21.4999 268.7L35.1999 267C35.1999 250 36.8999 220.9 38.9999 192.8C90.9999 216.2 135.8 229.4 193.4 216C237.2 205.8 290.2 168.5 337.8 173.5C352.1 175 360.9 174.9 365.7 185.8C367.3 207.6 368.8 230.5 369.5 248.6C369.8 255.6 369.9 261.8 369.9 266.9L383.6 268.6L399 139.3C399 139.3 382.1 126.7 375.4 114.3H375.5ZM111 179.9C137.5 183.3 186.9 157.4 246.9 125.5C262.4 117.2 299.1 117 314.7 133.5C240.3 131 153.9 205.9 111 179.9ZM41.2999 127.5L41.7999 125.5C108.3 131.7 254.9 14.6 314.7 116.8C229.2 56.2 129.6 187.9 41.2999 127.5Z" fill="white"/>
</g>
<defs>
<linearGradient id="paint0_linear_4_2" x1="1600.2" y1="437.4" x2="1946.7" y2="90.9" gradientUnits="userSpaceOnUse">
<stop stop-color="#42A6DD"/>
<stop offset="1" stop-color="#4BBEA8"/>
</linearGradient>
<linearGradient id="paint1_linear_4_2" x1="87.8" y1="437.4" x2="317.8" y2="207.3" gradientUnits="userSpaceOnUse">
<stop stop-color="#42A6DD"/>
<stop offset="1" stop-color="#4BBEA8"/>
</linearGradient>
<clipPath id="clip0_4_2">
<rect width="2000" height="452" fill="white"/>
</clipPath>
</defs>
</svg>
